<svg id="visual" viewBox="0 0 960 540" width="960" height="540" xmlns="http://www.w3.org/2000/svg" xmlns:xlink="http://www.w3.org/1999/xlink" version="1.1"><rect x="0" y="0" width="960" height="540" fill="#f3f3f3"></rect><path d="M0 377L22.8 383.5C45.7 390 91.3 403 137 402.5C182.7 402 228.3 388 274 384.3C319.7 380.7 365.3 387.3 411.2 396.7C457 406 503 418 548.8 418.7C594.7 419.3 640.3 408.7 686 398.7C731.7 388.7 777.3 379.3 823 374C868.7 368.7 914.3 367.3 937.2 366.7L960 366L960 541L937.2 541C914.3 541 868.7 541 823 541C777.3 541 731.7 541 686 541C640.3 541 594.7 541 548.8 541C503 541 457 541 411.2 541C365.3 541 319.7 541 274 541C228.3 541 182.7 541 137 541C91.3 541 45.7 541 22.8 541L0 541Z" fill="#ffd6da"></path><path d="M0 440L22.8 440.8C45.7 441.7 91.3 443.3 137 444.8C182.7 446.3 228.3 447.7 274 443.7C319.7 439.7 365.3 430.3 411.2 424.3C457 418.3 503 415.7 548.8 412.8C594.7 410 640.3 407 686 412.3C731.7 417.7 777.3 431.3 823 437.7C868.7 444 914.3 443 937.2 442.5L960 442L960 541L937.2 541C914.3 541 868.7 541 823 541C777.3 541 731.7 541 686 541C640.3 541 594.7 541 548.8 541C503 541 457 541 411.2 541C365.3 541 319.7 541 274 541C228.3 541 182.7 541 137 541C91.3 541 45.7 541 22.8 541L0 541Z" fill="#fcb1b6"></path><path d="M0 428L22.8 429C45.7 430 91.3 432 137 435.5C182.7 439 228.3 444 274 449.5C319.7 455 365.3 461 411.2 462.2C457 463.3 503 459.7 548.8 453.5C594.7 447.3 640.3 438.7 686 436.5C731.7 434.3 777.3 438.7 823 445C868.7 451.3 914.3 459.7 937.2 463.8L960 468L960 541L937.2 541C914.3 541 868.7 541 823 541C777.3 541 731.7 541 686 541C640.3 541 594.7 541 548.8 541C503 541 457 541 411.2 541C365.3 541 319.7 541 274 541C228.3 541 182.7 541 137 541C91.3 541 45.7 541 22.8 541L0 541Z" fill="#f58b91"></path><path d="M0 468L22.8 466C45.7 464 91.3 460 137 462.7C182.7 465.3 228.3 474.7 274 479.3C319.7 484 365.3 484 411.2 479.8C457 475.7 503 467.3 548.8 462.7C594.7 458 640.3 457 686 458.8C731.7 460.7 777.3 465.3 823 470.8C868.7 476.3 914.3 482.7 937.2 485.8L960 489L960 541L937.2 541C914.3 541 868.7 541 823 541C777.3 541 731.7 541 686 541C640.3 541 594.7 541 548.8 541C503 541 457 541 411.2 541C365.3 541 319.7 541 274 541C228.3 541 182.7 541 137 541C91.3 541 45.7 541 22.8 541L0 541Z" fill="#ea646b"></path><path d="M0 512L22.8 510.8C45.7 509.7 91.3 507.3 137 507.5C182.7 507.7 228.3 510.3 274 507.3C319.7 504.3 365.3 495.7 411.2 496.5C457 497.3 503 507.7 548.8 512.7C594.7 517.7 640.3 517.3 686 513.2C731.7 509 777.3 501 823 500.5C868.7 500 914.3 507 937.2 510.5L960 514L960 541L937.2 541C914.3 541 868.7 541 823 541C777.3 541 731.7 541 686 541C640.3 541 594.7 541 548.8 541C503 541 457 541 411.2 541C365.3 541 319.7 541 274 541C228.3 541 182.7 541 137 541C91.3 541 45.7 541 22.8 541L0 541Z" fill="#dc3545"></path></svg>