<svg id="visual" viewBox="0 0 960 540" width="960" height="540" xmlns="http://www.w3.org/2000/svg" xmlns:xlink="http://www.w3.org/1999/xlink" version="1.1"><rect x="0" y="0" width="960" height="540" fill="#f9f9f9"></rect><path d="M0 398L22.8 400.7C45.7 403.3 91.3 408.7 137 413.2C182.7 417.7 228.3 421.3 274 425.5C319.7 429.7 365.3 434.3 411.2 423.8C457 413.3 503 387.7 548.8 381.5C594.7 375.3 640.3 388.7 686 386.2C731.7 383.7 777.3 365.3 823 365.2C868.7 365 914.3 383 937.2 392L960 401L960 541L937.2 541C914.3 541 868.7 541 823 541C777.3 541 731.7 541 686 541C640.3 541 594.7 541 548.8 541C503 541 457 541 411.2 541C365.3 541 319.7 541 274 541C228.3 541 182.7 541 137 541C91.3 541 45.7 541 22.8 541L0 541Z" fill="#9c0a0a" stroke-linecap="round" stroke-linejoin="miter"></path></svg>